<?xml version="1.0" standalone="no"?>
<!DOCTYPE svg PUBLIC "-//W3C//DTD SVG 20010904//EN"
 "http://www.w3.org/TR/2001/REC-SVG-20010904/DTD/svg10.dtd">
<svg version="1.0" xmlns="http://www.w3.org/2000/svg"
 width="255.000000pt" height="240.000000pt" viewBox="0 0 255.000000 240.000000"
 preserveAspectRatio="xMidYMid meet">

<g transform="translate(0.000000,240.000000) scale(0.100000,-0.100000)"
fill="#000000" stroke="none">
<path d="M765 2284 c-58 -16 -94 -40 -115 -77 -14 -24 -13 -28 5 -41 11 -9 45
-24 75 -34 l55 -19 -94 1 c-84 1 -95 3 -101 21 -4 11 -3 25 2 32 13 16 -7 26
-34 17 -19 -6 -20 -8 -6 -18 9 -7 20 -24 23 -38 5 -21 2 -27 -24 -38 -17 -7
-52 -27 -78 -46 -26 -18 -49 -32 -51 -30 -1 2 15 30 37 61 23 32 41 64 41 71
0 16 -54 34 -99 33 -20 0 -63 -11 -96 -23 -56 -20 -60 -24 -68 -61 -18 -84
-19 -152 -2 -184 14 -28 18 -30 38 -20 12 7 43 30 70 51 26 22 47 38 47 35 0
-3 -13 -33 -29 -66 -51 -108 -49 -225 4 -331 25 -50 104 -128 153 -154 32 -16
32 -17 26 -71 -8 -68 7 -73 37 -12 l21 43 82 -4 c97 -5 142 6 219 52 l59 35
28 -20 c41 -31 55 -16 26 28 l-24 35 24 35 c104 154 53 387 -107 491 -102 67
-98 64 -59 57 106 -18 129 -18 136 -1 13 33 -17 98 -69 153 -57 58 -66 60
-152 37z m37 -230 c65 -22 141 -92 175 -162 24 -49 28 -69 28 -142 0 -73 -4
-93 -28 -142 -94 -192 -349 -243 -506 -102 -29 26 -62 69 -78 102 -24 49 -28
69 -28 142 1 97 20 151 76 214 91 104 224 137 361 90z"/>
<path d="M764 1915 c-4 -8 -3 -30 0 -49 6 -32 -12 -65 -27 -49 -11 10 -8 45 3
38 6 -3 10 -1 10 5 0 25 -25 2 -34 -31 -8 -32 -9 -33 -15 -10 -7 25 -31 42
-31 22 0 -6 5 -11 10 -11 6 0 10 -9 10 -20 0 -21 15 -27 25 -10 3 5 12 7 19 4
7 -3 20 2 29 10 8 8 18 12 22 8 4 -4 4 7 0 23 -4 17 -7 42 -7 58 -1 30 -6 35
-14 12z"/>
<path d="M795 1880 c-3 -5 -1 -10 4 -10 6 0 11 -9 11 -20 0 -11 4 -20 9 -20
10 0 2 48 -10 55 -4 3 -10 1 -14 -5z"/>
<path d="M525 1840 c-4 -6 -4 -29 0 -50 4 -26 3 -40 -4 -40 -6 0 -11 -4 -11
-10 0 -12 58 -2 81 14 14 10 14 15 2 41 -13 29 -13 29 -12 5 2 -44 -1 -50 -21
-50 -20 0 -24 15 -23 83 0 20 -3 21 -12 7z"/>
<path d="M650 1818 c0 -15 5 -30 10 -33 13 -8 13 25 0 45 -8 12 -10 9 -10 -12z"/>
<path d="M623 1806 c1 -16 9 -32 17 -34 12 -4 13 -2 4 9 -7 8 -14 23 -17 34
-4 13 -5 9 -4 -9z"/>
<path d="M843 1797 c-36 -11 -38 -18 -22 -68 17 -49 22 -52 67 -38 46 13 47
34 1 24 -33 -7 -41 10 -9 20 27 9 25 27 -2 23 -29 -3 -36 15 -8 22 21 5 30 23
13 26 -4 1 -23 -3 -40 -9z"/>
<path d="M757 1763 c-3 -5 -8 -23 -12 -41 l-7 -34 -27 26 c-51 48 -63 26 -32
-56 13 -35 35 -37 29 -3 -5 25 5 34 17 15 11 -18 35 -11 35 10 0 11 4 20 9 20
5 0 11 -9 14 -20 8 -32 30 -25 24 8 -13 65 -36 99 -50 75z"/>
<path d="M613 1722 c-17 -11 15 -112 35 -112 11 0 13 8 9 29 -11 53 -31 91
-44 83z"/>
<path d="M533 1697 c-35 -13 -44 -32 -15 -32 11 0 20 -12 26 -37 7 -26 15 -38
27 -38 17 0 17 3 3 42 -13 38 -13 44 1 54 34 25 12 30 -42 11z"/>
<path d="M1690 1990 c-84 -9 -144 -36 -202 -92 -62 -61 -86 -136 -69 -212 15
-69 31 -92 31 -48 0 80 21 125 87 190 l64 63 22 -33 c13 -20 46 -45 82 -63 42
-21 61 -36 63 -52 3 -20 1 -21 -26 -11 -17 7 -37 8 -48 3 -15 -6 -10 -10 26
-16 28 -5 50 -17 59 -30 8 -12 32 -32 53 -45 24 -15 38 -32 38 -45 0 -41 18
-59 60 -59 29 0 43 -6 54 -22 36 -51 7 -128 -48 -128 -22 0 -25 -5 -31 -52 -3
-29 -7 -82 -8 -117 l-2 -65 63 -15 64 -16 -129 -121 c-70 -66 -147 -137 -169
-157 l-42 -37 -113 160 -114 161 -35 -5 c-52 -6 -146 -44 -180 -73 -23 -19
-30 -33 -30 -59 l0 -34 -64 0 c-39 0 -67 -5 -73 -12 -10 -13 -55 -271 -72
-416 -16 -128 24 -255 89 -282 37 -15 95 -7 122 17 11 10 34 42 51 72 26 45
32 51 38 35 6 -14 8 -9 8 19 l1 37 110 0 110 0 0 -215 0 -215 330 0 329 0 -24
63 c-13 34 -28 74 -34 90 -13 32 -11 33 31 7 39 -24 116 -27 157 -5 50 25 54
53 48 298 -9 372 -48 510 -169 597 -21 16 -44 30 -50 32 -7 3 -4 23 9 58 29
77 42 174 50 363 7 178 1 215 -45 276 -26 35 -75 61 -116 61 -17 0 -43 18 -80
55 -84 85 -153 108 -276 95z m400 -1423 c0 -3 -10 -27 -22 -54 -12 -26 -22
-68 -22 -93 -1 -42 -3 -46 -34 -56 -18 -6 -45 -24 -60 -41 -72 -82 -160 -72
-292 32 -39 30 -60 58 -86 111 -19 39 -34 76 -34 82 0 12 42 14 378 20 94 2
172 1 172 -1z"/>
<path d="M1495 1740 c-4 -6 8 -10 30 -10 22 0 34 4 30 10 -3 6 -17 10 -30 10
-13 0 -27 -4 -30 -10z"/>
<path d="M1490 1650 c-11 -7 -4 -10 25 -10 29 0 36 3 25 10 -8 5 -19 10 -25
10 -5 0 -17 -5 -25 -10z"/>
<path d="M1693 1652 c-8 -5 1 -8 22 -8 18 0 31 4 29 8 -7 10 -35 10 -51 0z"/>
<path d="M1577 1558 c-9 -23 -15 -43 -13 -45 2 -2 11 15 20 38 9 23 15 43 13
45 -2 2 -11 -15 -20 -38z"/>
<path d="M1514 1579 c-10 -17 13 -36 27 -22 12 12 4 33 -11 33 -5 0 -12 -5
-16 -11z"/>
<path d="M1704 1579 c-10 -17 13 -36 27 -22 12 12 4 33 -11 33 -5 0 -12 -5
-16 -11z"/>
<path d="M1654 1438 c13 -10 17 -21 12 -34 -6 -15 -5 -17 6 -6 14 14 2 43 -23
50 -8 2 -5 -2 5 -10z"/>
<path d="M1482 1280 c-6 -14 -13 -33 -16 -43 -5 -17 -8 -17 -28 -3 -24 17 -58
21 -58 7 0 -4 9 -20 20 -34 18 -22 25 -25 46 -17 14 6 31 7 37 3 7 -4 2 -10
-13 -14 -23 -6 -23 -7 -3 -8 44 -2 69 73 39 114 -14 19 -15 19 -24 -5z"/>
<path d="M530 343 c0 -5 9 -23 20 -40 19 -32 19 -33 1 -33 -10 0 -30 -9 -45
-21 -20 -16 -26 -29 -26 -59 0 -22 5 -51 12 -65 11 -24 14 -25 104 -25 86 0
94 2 105 22 7 13 12 43 12 67 0 56 -30 86 -80 78 -28 -5 -33 -3 -33 14 0 11
-11 31 -25 44 -24 24 -45 33 -45 18z"/>
<path d="M1268 105 l-37 -105 42 0 42 0 -3 72 c-5 149 -4 148 -44 33z"/>
</g>
</svg>
