<?xml version="1.0" standalone="no"?>
<!DOCTYPE svg PUBLIC "-//W3C//DTD SVG 20010904//EN"
 "http://www.w3.org/TR/2001/REC-SVG-20010904/DTD/svg10.dtd">
<svg version="1.0" xmlns="http://www.w3.org/2000/svg"
 width="237.000000pt" height="242.000000pt" viewBox="0 0 237.000000 242.000000"
 preserveAspectRatio="xMidYMid meet">

<g transform="translate(0.000000,242.000000) scale(0.100000,-0.100000)"
fill="#000000" stroke="none">
<path d="M1280 2393 c-19 -10 -43 -34 -55 -53 -20 -34 -20 -48 -18 -629 l3
-593 -23 7 c-82 25 -145 35 -234 35 l-101 0 -7 33 c-12 55 -37 97 -66 112 -41
22 -69 18 -101 -12 -15 -15 -28 -22 -28 -16 0 5 -11 27 -25 48 -26 38 -44 113
-65 268 -19 141 -62 197 -150 197 -55 0 -107 -26 -126 -62 -12 -23 -27 -154
-34 -300 0 -5 -6 -8 -13 -8 -28 0 -147 -159 -147 -197 0 -6 25 -21 56 -32 l55
-21 59 51 c49 42 64 50 92 47 37 -3 41 -21 6 -26 -49 -8 -36 -18 17 -14 66 5
75 -12 13 -26 l-43 -10 43 -1 c47 -1 50 -21 4 -21 l-27 -1 24 -13 c32 -18 51
-10 51 20 0 13 4 24 9 24 5 0 7 9 4 20 -13 47 44 8 104 -73 12 -15 23 -23 25
-19 1 5 13 13 26 16 17 6 22 3 22 -10 0 -21 -20 -143 -26 -163 -7 -21 -61 35
-69 71 -7 31 -52 59 -115 73 -19 4 -42 12 -52 18 -12 8 -31 7 -70 -6 -52 -16
-54 -19 -82 -82 -31 -72 -87 -130 -117 -122 -37 10 -41 -22 -36 -297 5 -256
12 -315 44 -383 15 -32 17 -33 74 -33 58 0 59 -1 58 -27 0 -16 -6 -61 -13
-100 -13 -72 -13 -73 9 -73 19 0 25 12 50 100 l27 100 332 -1 c182 -1 358 -4
391 -8 l60 -6 26 -90 c22 -76 30 -91 49 -93 17 -3 21 0 17 15 -3 10 -8 41 -12
68 -3 28 -8 62 -11 77 -5 25 -3 28 21 28 37 0 71 39 90 104 l16 56 421 0 c401
0 422 1 453 20 17 11 37 31 43 45 8 18 12 283 13 952 3 1012 5 963 -54 1007
-28 20 -40 21 -440 24 -377 2 -415 1 -447 -15z m231 -29 c7 -9 18 -26 24 -38
10 -20 18 -21 178 -24 l166 -2 26 40 25 40 104 0 c104 0 104 0 130 -31 l26
-31 0 -930 0 -930 -29 -29 -29 -29 -411 0 c-238 0 -412 4 -415 9 -4 5 -2 40 3
78 6 37 15 142 21 232 10 157 10 165 -10 198 -11 19 -20 45 -20 59 0 26 -23
78 -46 105 -12 13 -14 115 -12 628 l3 613 33 29 c31 28 37 29 126 29 74 0 96
-3 107 -16z m-1117 -636 c21 -29 20 -38 -1 -39 -17 -1 -17 -2 -1 -6 10 -2 27
-24 37 -49 21 -46 29 -52 49 -32 8 8 15 8 27 -2 21 -17 19 -37 -5 -52 -17 -11
-20 -24 -20 -75 0 -48 -3 -63 -14 -63 -27 0 -116 23 -116 31 0 4 -16 23 -35
42 -35 35 -35 36 -35 122 0 82 1 88 29 116 35 35 64 37 85 7z m399 -814 c8 -3
13 -13 10 -24 -3 -10 0 -21 6 -24 10 -6 8 -20 -9 -61 -5 -11 -11 -32 -14 -47
l-6 -28 -55 27 c-35 17 -55 33 -55 44 0 10 -4 21 -10 24 -5 3 -10 17 -10 31 0
13 5 24 10 24 6 0 10 9 10 20 0 18 7 20 54 20 30 0 61 -3 69 -6z m94 -204 c5
-19 17 -25 38 -20 6 2 48 5 95 6 47 2 94 4 105 4 23 1 55 -34 55 -61 0 -36
-38 -47 -209 -58 -139 -8 -166 -8 -178 5 -8 7 -18 14 -23 14 -5 0 -7 6 -5 13
2 6 9 32 15 55 9 36 15 43 31 39 12 -3 19 0 19 9 0 23 51 18 57 -6z"/>
<path d="M2078 2313 c7 -3 16 -2 19 1 4 3 -2 6 -13 5 -11 0 -14 -3 -6 -6z"/>
<path d="M1627 2183 c-14 -13 -7 -32 9 -26 11 4 12 8 4 13 -9 6 -9 9 1 13 8 3
9 6 3 6 -6 1 -14 -2 -17 -6z"/>
<path d="M1755 2176 c-16 -12 -18 -17 -7 -27 15 -16 36 1 30 25 -3 15 -5 15
-23 2z m15 -16 c0 -5 -4 -10 -10 -10 -5 0 -10 5 -10 10 0 6 5 10 10 10 6 0 10
-4 10 -10z"/>
<path d="M1665 2170 c-4 -6 -3 -16 3 -22 6 -6 12 -6 17 2 4 6 3 16 -3 22 -6 6
-12 6 -17 -2z"/>
<path d="M1705 2170 c-7 -12 2 -30 16 -30 12 0 12 27 0 35 -5 3 -12 1 -16 -5z"/>
<path d="M1640 1980 c0 -6 33 -10 80 -10 47 0 80 4 80 10 0 6 -33 10 -80 10
-47 0 -80 -4 -80 -10z"/>
<path d="M1467 1961 c-4 -17 -3 -21 5 -13 5 5 8 16 6 23 -3 8 -7 3 -11 -10z"/>
<path d="M1490 1876 c0 -9 5 -16 10 -16 6 0 10 4 10 9 0 6 -4 13 -10 16 -5 3
-10 -1 -10 -9z"/>
<path d="M1350 1870 c0 -5 5 -10 10 -10 6 0 10 5 10 10 0 6 -4 10 -10 10 -5 0
-10 -4 -10 -10z"/>
<path d="M1640 1660 c0 -6 33 -10 80 -10 47 0 80 4 80 10 0 6 -33 10 -80 10
-47 0 -80 -4 -80 -10z"/>
<path d="M1640 1340 c0 -6 33 -10 80 -10 47 0 80 4 80 10 0 6 -33 10 -80 10
-47 0 -80 -4 -80 -10z"/>
<path d="M1956 942 c-8 -13 0 -47 10 -45 11 3 14 42 3 48 -4 3 -10 2 -13 -3z"/>
<path d="M1996 942 c-8 -13 0 -47 10 -45 11 3 14 42 3 48 -4 3 -10 2 -13 -3z"/>
<path d="M2036 942 c-8 -13 0 -47 10 -45 11 3 14 42 3 48 -4 3 -10 2 -13 -3z"/>
<path d="M1347 931 c6 -3 13 -13 16 -21 4 -11 6 -10 6 4 1 20 1 20 16 0 13
-16 14 -16 9 -1 -4 12 -1 17 11 17 11 0 15 -5 11 -15 -3 -8 -1 -15 4 -15 6 0
10 6 10 14 0 8 10 16 23 18 12 2 -9 5 -47 5 -38 0 -64 -2 -59 -6z"/>
<path d="M1477 919 c-4 -16 -3 -18 9 -8 11 9 14 9 14 -1 0 -8 2 -11 5 -8 7 7
-5 38 -15 38 -4 0 -10 -9 -13 -21z"/>
<path d="M1522 920 c0 -14 2 -19 5 -12 2 6 2 18 0 25 -3 6 -5 1 -5 -13z"/>
<path d="M1399 701 c-31 -31 -39 -83 -19 -122 25 -45 52 -49 345 -49 l277 0
29 29 c41 41 41 101 0 142 l-29 29 -287 0 -287 0 -29 -29z m279 -77 c2 -16 -3
-20 -37 -21 -42 -2 -57 8 -47 32 3 9 18 13 43 12 29 -2 39 -7 41 -23z m50 14
c9 -9 12 -9 12 0 0 7 7 12 15 12 16 0 16 -20 0 -32 -6 -5 -3 -8 6 -8 9 0 19 9
22 21 7 25 31 20 35 -7 2 -15 -4 -19 -34 -22 -22 -1 -41 3 -46 10 -6 10 -8 10
-8 1 0 -7 -9 -13 -20 -13 -15 0 -20 7 -20 25 0 27 18 33 38 13z"/>
<path d="M1605 629 c-10 -15 3 -25 16 -12 7 7 7 13 1 17 -6 3 -14 1 -17 -5z"/>
<path d="M1700 620 c0 -5 5 -10 10 -10 6 0 10 5 10 10 0 6 -4 10 -10 10 -5 0
-10 -4 -10 -10z"/>
</g>
</svg>
